<svg width="16" height="16" viewBox="0 0 16 16" fill="none" xmlns="http://www.w3.org/2000/svg">
<rect width="16" height="16" rx="2" fill="white"/>
<path d="M4.1394 4.01103H5.92365L6.79806 6.51586L7.67246 4.01103H9.46853L8.03876 7.65241L8.88953 9.73793L10.9928 4H13.1079L9.83483 11.8345H8.15692L6.79806 8.7669L5.451 11.8345H3.76128L0.5 4H2.60329L4.7184 9.73793L5.54553 7.65241L4.1394 4.01103Z" fill="#4D5AE5"/>
<path d="M14.4011 6.37241C14.3775 6.33563 14.2947 6.28046 14.1529 6.2069C14.0112 6.12598 13.8339 6.04138 13.6212 5.9531C13.4085 5.86483 13.1761 5.78759 12.9241 5.72138C12.672 5.65517 12.4199 5.62207 12.1678 5.62207C11.837 5.62207 11.5809 5.67724 11.3998 5.78759C11.2186 5.89057 11.128 6.05241 11.128 6.2731C11.128 6.44965 11.195 6.58943 11.3289 6.69241C11.4707 6.7954 11.6715 6.88736 11.9315 6.96828C12.1915 7.04184 12.5105 7.13011 12.8886 7.2331C13.4243 7.36552 13.8891 7.52736 14.2829 7.71862C14.6768 7.90253 14.9761 8.14161 15.181 8.43586C15.3937 8.73011 15.5 9.12 15.5 9.60552C15.5 10.0469 15.4133 10.4221 15.24 10.731C15.0667 11.0326 14.8304 11.2791 14.5311 11.4703C14.2396 11.6543 13.9048 11.7903 13.5267 11.8786C13.1486 11.9595 12.7586 12 12.3569 12C11.9472 12 11.5258 11.9632 11.0925 11.8897C10.6672 11.8087 10.3333 11.7238 9.93945 11.5841L10.6055 9.9898C10.8655 10.0928 11.1201 10.1646 11.4352 10.2455C11.7503 10.3264 12.0694 10.3669 12.3923 10.3669C12.7389 10.3669 12.995 10.3154 13.1604 10.2124C13.3337 10.1094 13.4203 9.96598 13.4203 9.78207C13.4203 9.58345 13.3298 9.42897 13.1486 9.31862C12.9753 9.20828 12.735 9.10897 12.4278 9.02069C12.1284 8.93241 11.7818 8.8331 11.3879 8.72276C10.8759 8.57563 10.4505 8.41011 10.1118 8.22621C9.78094 8.0423 9.5328 7.81793 9.36737 7.5531C9.20982 7.28828 9.13105 6.95724 9.13105 6.56C9.13105 6.00828 9.2689 5.54483 9.54462 5.16966C9.82821 4.78713 10.2063 4.50023 10.679 4.30897C11.1516 4.11034 11.6676 4.01103 12.2269 4.01103C12.6208 4.01103 12.9989 4.05517 13.3613 4.14345C13.7315 4.23172 14.0742 4.34207 14.3893 4.47448C14.7123 4.6069 14.9998 4.73931 15.2519 4.87172L14.4011 6.37241Z" fill="#2E2F42"/>
</svg>
