<svg xmlns="http://www.w3.org/2000/svg" aria-hidden="true" style="position:absolute;width:0;height:0;overflow:hidden"><defs><symbol id="icon-satelite-antenna" viewBox="0 0 64 64"><path fill="#2e2f42" d="M61.546 44.195 44.66 27.185l1.874-9.231c.484.189.998.288 1.517.291h.013a4.319 4.319 0 1 0-4.018-2.871l-9.92 1.211L17.945.319a1.063 1.063 0 0 0-.753-.32c-.28.001-.548.113-.747.31L13.42 3.317a1.067 1.067 0 0 0 0 1.508l1.628 1.651a29.885 29.885 0 0 0 5.039 35.326.99.99 0 0 0 .292.195 6.276 6.276 0 0 0-.105 1.094v12.373h-12.8a5.339 5.339 0 0 0-5.333 5.333v2.133c0 .589.478 1.067 1.067 1.067h49.067c.589 0 1.067-.478 1.067-1.067v-2.133a5.34 5.34 0 0 0-5.333-5.333h-12.8V49.98c2.005.421 4.048.635 6.097.64a29.697 29.697 0 0 0 14.08-3.567l1.636 1.646c.199.203.469.318.753.32.28-.002.548-.113.747-.31l3.025-3.008a1.067 1.067 0 0 0 0-1.508zM46.56 12.466a2.134 2.134 0 1 1 1.504 3.646h-.006a2.133 2.133 0 0 1-1.493-3.646h-.004zm-2.511 7.009-1.197 5.891-2.351-2.365 3.548-3.526zm-1.212-1.803-3.84 3.818-2.971-2.987 6.811-.831zM48.008 57.6a3.2 3.2 0 0 1 3.2 3.2v1.067H4.275V60.8a3.2 3.2 0 0 1 3.2-3.2h40.533zm-14.933-4.267v2.133H22.408v-2.133h10.667zM22.408 51.2v-8.107c0-2.588 2.393-4.693 5.333-4.693s5.333 2.106 5.333 4.693V51.2H22.407zm12.8-3.392v-4.715c0-3.764-3.349-6.827-7.467-6.827a7.6 7.6 0 0 0-6.562 3.572 27.739 27.739 0 0 1-4.557-31.774l37.204 37.417a27.643 27.643 0 0 1-18.618 2.326zm22.578-1.367L15.672 4.079l1.509-1.504 15.87 15.96c.008 0 .012.014.019.019l26.229 26.383-1.514 1.504z"/><path fill="#4d5ae5" d="M27.751 40.533h-.01a3.2 3.2 0 0 0-.01 6.4h.01a3.2 3.2 0 0 0 .01-6.4zm.747 3.957a1.066 1.066 0 1 1-.756-1.823 1.067 1.067 0 0 1 .747 1.823h.01z"/></symbol><symbol id="icon-clock" viewBox="0 0 64 64"><path fill="#2e2f42" d="M62.593 30.602C62.59 13.697 48.882-.004 31.977 0S1.371 13.711 1.375 30.616a30.609 30.609 0 0 0 21.299 29.152c.121.038.247.058.374.057.241-.001.477-.065.685-.188.27-.16.472-.414.566-.713l7.73-24.5a3.826 3.826 0 0 0-.04-7.653 3.763 3.763 0 0 0-1.64.383L20.137 16.941a1.276 1.276 0 0 0-1.803 1.804L28.54 28.963a3.753 3.753 0 0 0 1.073 4.618l-7.365 23.346C7.692 51.565.239 35.419 5.601 20.864S27.109-1.145 41.664 4.217C56.22 9.579 63.673 25.725 58.311 40.28a28.092 28.092 0 0 1-14.924 15.947l-.796-3.748a1.275 1.275 0 0 0-2.097-.687l-7.674 6.851a1.276 1.276 0 0 0 .461 2.169l9.797 3.127a1.275 1.275 0 0 0 1.638-1.479l-.782-3.678a30.51 30.51 0 0 0 18.658-28.178zm-30.609-1.275a1.275 1.275 0 1 1 0 2.55 1.275 1.275 0 0 1 0-2.55zm4.201 29.728 4.368-3.897 1.206 5.681-5.574-1.784z"/><path fill="#4d5ae5" d="M30.709 6.37v2.551a1.275 1.275 0 1 0 2.55 0V6.37a1.275 1.275 0 0 0-2.55 0zM7.752 29.327a1.275 1.275 0 1 0 0 2.55h2.551a1.275 1.275 0 1 0 0-2.55H7.752zM56.216 31.878a1.275 1.275 0 1 0 0-2.55h-2.551a1.275 1.275 0 0 0 0 2.55h2.551z"/></symbol><symbol id="icon-diagram-on-laptop" viewBox="0 0 64 64"><path fill="#4d5ae5" d="M29.851 29.929h2.132v9.595h-2.132v-9.595zM38.38 34.194h2.132v5.331H38.38v-5.331zM21.322 37.392h2.132v2.132h-2.132v-2.132zM14.925 36.326h2.132v3.198h-2.132v-3.198z"/><path fill="#2e2f42" d="M3.198 56.582h51.173a3.198 3.198 0 0 0 3.198-3.198V49.12a3.198 3.198 0 0 0-3.198-3.198h-1.066V19.335l6.056-5.737a3.216 3.216 0 1 0-1.494-1.526l-4.563 4.325v-2.46a3.198 3.198 0 0 0-3.198-3.198H7.462a3.198 3.198 0 0 0-3.198 3.198V45.92H3.198A3.198 3.198 0 0 0 0 49.118v4.264a3.198 3.198 0 0 0 3.198 3.198zm57.57-46.909a1.066 1.066 0 1 1 0 2.131 1.066 1.066 0 0 1 0-2.131zM6.397 13.938c0-.589.477-1.066 1.066-1.066h42.644c.589 0 1.066.477 1.066 1.066v4.477l-2.132 2.026V16.07c0-.589-.477-1.066-1.066-1.066H9.595c-.589 0-1.066.477-1.066 1.066v26.653c0 .589.477 1.066 1.066 1.066h38.38c.589 0 1.066-.477 1.066-1.066V23.374l2.132-2.02v24.567H6.396V13.938zm9.595 13.859a3.197 3.197 0 1 0 2.214 5.496l3.706 1.859c.43.215.953.114 1.273-.245l7.878-8.863 7.744 5.803c.415.311.995.278 1.372-.079l6.73-6.375v16.262H10.661v-24.52h36.248v5.321l-7.543 7.143-7.809-5.854a1.066 1.066 0 0 0-1.436.144l-7.986 8.985-2.985-1.493c.022-.128.035-.257.041-.387a3.198 3.198 0 0 0-3.198-3.198zm1.066 3.198a1.066 1.066 0 1 1-2.131 0 1.066 1.066 0 0 1 2.131 0zm6.396 17.058h10.661v1.066c0 .589-.477 1.066-1.066 1.066H24.52a1.066 1.066 0 0 1-1.066-1.066v-1.066zM2.132 49.119c0-.589.477-1.066 1.066-1.066h18.124v1.066a3.198 3.198 0 0 0 3.198 3.198h8.529a3.198 3.198 0 0 0 3.198-3.198v-1.066h18.124c.589 0 1.066.477 1.066 1.066v4.264c0 .589-.477 1.066-1.066 1.066H3.198a1.066 1.066 0 0 1-1.066-1.066v-4.264z"/></symbol><symbol id="icon-astronaut" viewBox="0 0 64 64"><path fill="#4d5ae5" d="M63.948 9.048a1.067 1.067 0 0 0-.861-.725l-3.821-.556-1.71-3.462c-.358-.73-1.554-.73-1.913 0l-1.71 3.462-3.821.556a1.066 1.066 0 0 0-.592 1.818l2.766 2.696-.653 3.806c-.068.4.096.804.423 1.043.332.241.765.271 1.124.081l3.418-1.797 3.418 1.797a1.072 1.072 0 0 0 1.124-.081c.328-.239.493-.643.423-1.043l-.653-3.806 2.766-2.696a1.07 1.07 0 0 0 .27-1.093zm-4.926 2.654a1.064 1.064 0 0 0-.306.944l.382 2.228-2.001-1.052a1.066 1.066 0 0 0-.994 0l-2.001 1.052.382-2.228a1.068 1.068 0 0 0-.306-.944l-1.62-1.579 2.238-.325c.348-.05.648-.269.803-.584L56.6 7.187l1.001 2.027c.156.315.456.533.803.584l2.238.325-1.618 1.579zM52.267 41.044h-2.133v2.133h2.133v-2.133zM52.267 45.311h-2.133v2.133h2.133v-2.133zM54.4 43.178h-2.133v2.133H54.4v-2.133zM50.134 43.178h-2.133v2.133h2.133v-2.133zM44.8 52.778h-2.133v2.133H44.8v-2.133zM44.8 57.045h-2.133v2.133H44.8v-2.133zM46.934 54.911h-2.133v2.133h2.133v-2.133zM42.667 54.911h-2.133v2.133h2.133v-2.133zM32 48.511h-2.133v2.133H32v-2.133zM32 52.778h-2.133v2.133H32v-2.133zM34.133 50.645H32v2.133h2.133v-2.133zM29.867 50.645h-2.133v2.133h2.133v-2.133zM11.733 12.244H9.6v2.133h2.133v-2.133zM11.733 16.511H9.6v2.133h2.133v-2.133zM13.866 14.377h-2.133v2.133h2.133v-2.133zM9.6 14.377H7.467v2.133H9.6v-2.133z"/><path fill="#2e2f42" d="M49.429 28.319a3.545 3.545 0 0 0-2.377-1.409 3.552 3.552 0 0 0-2.68.704l-2.505 1.92-3.795 2.834-2.716-1.082c4.843-2.173 8.227-7.017 8.227-12.64 0-7.646-6.245-13.867-13.922-13.867S15.739 11 15.739 18.646c0 2.771.829 5.348 2.24 7.517l-5.528-.048h-.01c-.017 0-.031.009-.047.01a1.036 1.036 0 0 0-.31.062c-.026.01-.052.015-.077.027-.013.005-.026.006-.038.013L5.503 29.42l-.002.001-3.787 1.821a.881.881 0 0 0-.126.07 3.561 3.561 0 0 0-1.197 4.591 3.55 3.55 0 0 0 2.112 1.778 3.565 3.565 0 0 0 2.757-.257l2.776-1.476 4.528-2.338 2.714-.016L4.395 44.425l-.003.002-2.677 2.667a3.3 3.3 0 0 0-.98 2.355c0 .89.348 1.727.98 2.357.65.646 1.504.971 2.358.971a3.34 3.34 0 0 0 2.361-.971l2.628-2.618 3.482-2.599 1.802 1.794-3.523 3.508-.003.002-2.677 2.667a3.296 3.296 0 0 0-.98 2.355c0 .89.348 1.727.98 2.357.65.646 1.505.971 2.36.971s1.71-.324 2.361-.971l6.963-6.933.002-.003 2.019-2-.008-.008c.013-.013.031-.017.044-.031l10.332-11.316 6.942.988a.947.947 0 0 0 .524-.066c.035-.013.066-.03.099-.047.038-.019.079-.03.115-.054l6.427-4.267c.023-.016.036-.042.059-.059.026-.02.058-.029.081-.051l2.543-2.382a3.558 3.558 0 0 0 .424-4.724zM4.261 35.54c-.347.186-.74.223-1.117.103a1.428 1.428 0 0 1-.424-2.52l2.627-1.264.898 2.625-1.984 1.055zm6.994-3.655-3.097 1.6-.878-2.567 4.053-2.001-.079 2.968zm30.199-13.241c0 1.837-.438 3.569-1.198 5.119l-8.363-3.798a3.725 3.725 0 0 0-1.577-2.776l2.928-9.721c4.755 1.513 8.209 5.949 8.209 11.176zm-23.578 0c0-6.469 5.289-11.733 11.789-11.733.506 0 1 .043 1.49.104l-2.864 9.507c-.038-.001-.075-.012-.114-.012-2.065 0-3.745 1.675-3.745 3.733s1.68 3.733 3.745 3.733c1.389 0 2.589-.767 3.236-1.889l7.725 3.509c-2.149 2.893-5.589 4.78-9.473 4.78-6.5 0-11.789-5.264-11.789-11.734zm11.913 1.6c0 .882-.723 1.6-1.612 1.6s-1.612-.718-1.612-1.6c0-.882.723-1.6 1.612-1.6s1.612.718 1.612 1.6zM4.93 50.292a1.217 1.217 0 0 1-1.709.001 1.189 1.189 0 0 1 0-1.689l1.924-1.917 1.702 1.695-1.918 1.909zm6.427 7.467a1.217 1.217 0 0 1-1.71.001 1.189 1.189 0 0 1 0-1.689l1.925-1.918 1.704 1.695-1.919 1.91zm6.964-6.937-.003.002-3.53 3.52-1.704-1.695 3.527-3.51v-.001l.003-.002c.08-.08.13-.176.179-.271.014-.028.041-.051.052-.08.033-.082.038-.171.051-.257.006-.049.028-.095.028-.145 0-.072-.026-.141-.041-.211-.013-.064-.013-.129-.037-.191-.041-.1-.11-.189-.182-.275-.02-.023-.028-.053-.05-.076h-.001l-.002-.004-3.214-3.2c-.034-.034-.078-.048-.116-.077a.989.989 0 0 0-.174-.115.987.987 0 0 0-.187-.065 1.013 1.013 0 0 0-.206-.039 1.02 1.02 0 0 0-.191.01.982.982 0 0 0-.208.041.934.934 0 0 0-.189.09c-.04.022-.084.03-.122.058l-3.547 2.648-1.802-1.794 4.798-4.772 8.721 8.577-1.855 1.838zm13.637-14.034c-.031-.004-.06.008-.091.005a1.046 1.046 0 0 0-.23.014.983.983 0 0 0-.369.137.99.99 0 0 0-.166.123c-.026.022-.056.033-.08.059l-9.397 10.291-8.656-8.513 5.666-5.636a1.067 1.067 0 0 0-.76-1.822v-.001l-4.437.027.056-3.215 6.208.053a13.897 13.897 0 0 0 9.963 4.202c.875 0 1.728-.091 2.559-.245.08.064.159.129.259.17l4.819 1.92.305 1.517.356 1.771-6.005-.854zm8.083.357-.626-3.116 2.893-2.16 1.893 2.513-4.16 2.763zm7.507-5.662-1.676 1.57-1.862-2.473 1.663-1.275c.31-.239.702-.336 1.086-.286.386.054.727.256.96.569a1.428 1.428 0 0 1-.171 1.894z"/><path fill="#2e2f42" d="m27.204 37.088-4.286-4.267a1.065 1.065 0 0 0-1.505 0l-4.285 4.267a1.07 1.07 0 0 0 0 1.512l4.285 4.267a1.065 1.065 0 0 0 1.505 0l4.286-4.267a1.067 1.067 0 0 0 0-1.512zm-5.038 3.518-2.773-2.762 2.773-2.762 2.774 2.762-2.774 2.762zM34.328 10.142l-.515 2.072c.142.035 3.475.903 3.475 4.298h2.133c0-4.034-3.331-5.931-5.093-6.369zM39.422 18.644h-2.133v2.134h2.133v-2.134z"/></symbol><symbol id="icon-instagram" viewBox="0 0 64 64"><path d="M63.937 18.816c-.15-3.401-.7-5.738-1.488-7.764a15.63 15.63 0 0 0-3.701-5.676 15.747 15.747 0 0 0-5.664-3.688C51.046.9 48.721.35 45.32.2 41.894.037 40.806 0 32.117 0s-9.777.038-13.19.188c-3.401.15-5.738.7-7.764 1.488a15.614 15.614 0 0 0-5.676 3.701 15.747 15.747 0 0 0-3.688 5.664C1.011 13.079.461 15.404.311 18.805c-.163 3.426-.2 4.514-.2 13.203s.038 9.777.188 13.19c.15 3.4.7 5.738 1.488 7.764a15.79 15.79 0 0 0 3.7 5.676 15.747 15.747 0 0 0 5.664 3.688c2.038.788 4.363 1.338 7.764 1.488 3.413.151 4.501.188 13.19.188s9.777-.037 13.19-.188c3.4-.15 5.738-.7 7.764-1.488a16.37 16.37 0 0 0 9.365-9.364c.787-2.038 1.338-4.364 1.488-7.764.15-3.414.188-4.501.188-13.19s-.013-9.777-.163-13.19zm-5.763 26.13c-.138 3.126-.663 4.814-1.1 5.939a10.617 10.617 0 0 1-6.076 6.076c-1.125.438-2.825.963-5.939 1.1-3.376.15-4.388.187-12.927.187s-9.564-.037-12.928-.187c-3.126-.137-4.813-.662-5.939-1.1a9.86 9.86 0 0 1-3.675-2.388 9.948 9.948 0 0 1-2.388-3.676c-.438-1.125-.963-2.826-1.1-5.939-.15-3.376-.188-4.388-.188-12.928s.037-9.564.188-12.927c.137-3.126.662-4.813 1.1-5.939a9.726 9.726 0 0 1 2.401-3.676A9.936 9.936 0 0 1 13.278 7.1c1.125-.438 2.826-.963 5.939-1.1 3.376-.15 4.389-.188 12.927-.188 8.552 0 9.564.038 12.928.188 3.126.138 4.814.663 5.939 1.1a9.847 9.847 0 0 1 3.676 2.388 9.96 9.96 0 0 1 2.388 3.676c.438 1.125.962 2.825 1.1 5.939.15 3.376.188 4.388.188 12.927s-.038 9.539-.188 12.915z"/><path d="M32.119 15.565c-9.076 0-16.441 7.364-16.441 16.441s7.364 16.441 16.441 16.441c9.077 0 16.441-7.364 16.441-16.441s-7.364-16.441-16.441-16.441zm0 27.105c-5.888 0-10.665-4.776-10.665-10.665S26.23 21.34 32.119 21.34c5.889 0 10.664 4.776 10.664 10.665S38.007 42.67 32.118 42.67zM53.048 14.915a3.838 3.838 0 1 1-7.675 0 3.838 3.838 0 0 1 7.675 0z"/></symbol><symbol id="icon-twitter" viewBox="0 0 64 64"><path d="M64 12.155a27.355 27.355 0 0 1-7.56 2.072 13.047 13.047 0 0 0 5.772-7.252 26.22 26.22 0 0 1-8.32 3.176 13.148 13.148 0 0 0-9.584-4.152c-7.264 0-13.112 5.896-13.112 13.124 0 1.04.088 2.04.304 2.992-10.908-.532-20.56-5.76-27.044-13.724-1.132 1.964-1.796 4.212-1.796 6.632 0 4.544 2.34 8.572 5.828 10.904-2.108-.04-4.176-.652-5.928-1.616v.144c0 6.376 4.548 11.672 10.512 12.892-1.068.292-2.232.432-3.44.432-.84 0-1.688-.048-2.484-.224 1.7 5.196 6.524 9.016 12.26 9.14A26.363 26.363 0 0 1 3.14 52.291c-1.076 0-2.108-.048-3.14-.18 5.812 3.748 12.7 5.888 20.128 5.888 24.144 0 37.344-20 37.344-37.336 0-.58-.02-1.14-.048-1.696 2.604-1.848 4.792-4.156 6.576-6.812z"/></symbol><symbol id="icon-facebook" viewBox="0 0 64 64"><path d="M42.659 10.626h5.843V.45c-1.008-.139-4.475-.451-8.512-.451-8.424 0-14.195 5.299-14.195 15.037v8.963h-9.296v11.376h9.296v28.624h11.397V35.378h8.92l1.416-11.376H37.189v-7.837c.003-3.288.888-5.539 5.469-5.539z"/></symbol><symbol id="icon-linkedin" viewBox="0 0 64 64"><path d="M63.984 64v-.003H64V40.525c0-11.483-2.472-20.328-15.896-20.328-6.453 0-10.784 3.541-12.552 6.899h-.187v-5.827H22.637v42.728H35.89V42.84c0-5.571 1.056-10.957 7.955-10.957 6.798 0 6.899 6.357 6.899 11.315v20.803h13.24zM1.056 21.271h13.269v42.728H1.056V21.271zM7.686-.001C3.443-.001.001 3.442.001 7.684s3.443 7.757 7.685 7.757c4.243 0 7.685-3.515 7.685-7.757-.003-4.243-3.445-7.685-7.685-7.685z"/></symbol><symbol id="icon-company-logo-1" viewBox="0 0 119 64"><path d="m43.429 8 8.009 7.63-14.866-.009v37.02h38.857V38.487l8 7.622V8.001h-40zm31.648 29.591L52.369 15.957h22.708v21.634zm-7.051 9.635H42.72V22.328h1.789V45.54h23.518v1.686zM47.767 59.498l-.943-1.939h-.778l1.367 2.567v1.496h.706v-1.496l1.367-2.567h-.776l-.943 1.939zm3.476-1.939h.167l1.535 4.063h-.737l-.329-.951h-1.573l-.328.951h-.734l1.529-4.063h.469zm-.744 2.556h1.189l-.595-1.723-.594 1.723zm4.909-.673a5.996 5.996 0 0 1-.088-.114 2.135 2.135 0 0 1-.243-.399.977.977 0 0 1-.087-.402c0-.212.044-.394.131-.547s.211-.27.371-.352a1.19 1.19 0 0 1 .561-.126c.206 0 .384.042.533.126a.88.88 0 0 1 .346.326.849.849 0 0 1 .123.446c0 .128-.023.246-.07.352s-.111.203-.193.29c-.082.087-.177.17-.285.248l-.282.205.804.949a1.639 1.639 0 0 0 .175-.758h.58c0 .197-.02.384-.059.561a1.76 1.76 0 0 1-.296.67l.595.702h-.778l-.236-.278a1.597 1.597 0 0 1-.417.228 1.844 1.844 0 0 1-.63.106c-.27 0-.503-.049-.7-.148s-.35-.234-.458-.407a1.114 1.114 0 0 1-.159-.594.88.88 0 0 1 .103-.435c.069-.126.163-.244.282-.352.11-.1.235-.199.376-.299zm.334.408-.084.061c-.099.08-.172.157-.22.232a.676.676 0 0 0-.039.687.586.586 0 0 0 .226.232c.1.056.222.084.365.084.154 0 .304-.034.449-.103.073-.035.142-.078.207-.128l-.904-1.063zm.16-.742.249-.168a.893.893 0 0 0 .251-.229.508.508 0 0 0 .075-.285.405.405 0 0 0-.427-.391.411.411 0 0 0-.388.24.592.592 0 0 0 .017.496 1.612 1.612 0 0 0 .223.335zm7.108 1.191h-.698c-.02.177-.063.326-.128.449a.628.628 0 0 1-.282.276 1.061 1.061 0 0 1-.483.095c-.164 0-.304-.033-.421-.098s-.214-.157-.29-.276a1.365 1.365 0 0 1-.167-.427 2.726 2.726 0 0 1-.053-.558v-.343c0-.216.02-.407.059-.575.041-.169.101-.312.181-.427s.18-.203.299-.262a.918.918 0 0 1 .419-.089c.195 0 .353.033.474.1.121.065.212.16.273.285.063.125.104.274.123.449h.697a1.748 1.748 0 0 0-.229-.723c-.123-.21-.296-.375-.519-.494s-.497-.179-.82-.179c-.255 0-.485.045-.689.134a1.434 1.434 0 0 0-.522.388 1.748 1.748 0 0 0-.335.605c-.076.236-.114.5-.114.792v.338c0 .292.037.556.112.792.076.236.186.438.329.605.143.166.315.294.516.385.201.089.427.134.678.134.327 0 .605-.06.834-.179s.406-.282.533-.488a1.6 1.6 0 0 0 .223-.712zm3.875-.597v-.223c0-.307-.041-.581-.123-.823a1.774 1.774 0 0 0-.343-.622 1.466 1.466 0 0 0-.533-.394 1.684 1.684 0 0 0-.686-.137c-.249 0-.477.046-.684.137-.205.089-.382.22-.533.394a1.82 1.82 0 0 0-.346.622 2.556 2.556 0 0 0-.123.823v.223c0 .307.041.582.123.826.084.244.201.451.352.622s.328.302.533.394c.207.089.434.134.684.134.251 0 .48-.045.686-.134a1.47 1.47 0 0 0 .53-.394c.149-.171.263-.379.343-.622s.12-.519.12-.826zm-.7-.229v.229c0 .227-.022.428-.067.603a1.327 1.327 0 0 1-.19.444.844.844 0 0 1-.307.271.925.925 0 0 1-.416.089.932.932 0 0 1-.413-.089.885.885 0 0 1-.313-.271c-.085-.121-.151-.269-.195-.444s-.067-.376-.067-.603v-.229c0-.227.022-.427.067-.6a1.3 1.3 0 0 1 .193-.438.833.833 0 0 1 .31-.268c.121-.061.258-.092.413-.092s.293.031.416.092a.803.803 0 0 1 .31.268c.085.117.15.263.192.438.045.173.067.373.067.6z"/></symbol><symbol id="icon-company-logo-2" viewBox="0 0 119 64"><path d="M57.273 6.782h-.156c-.24-.014-.48-.02-.72-.026h-.52c-.454 0-.917.012-1.376.035a.602.602 0 0 0-.104 0 32.31 32.31 0 0 0-12.018 3.066l-.494.238v25.304l1.156-.392a43.522 43.522 0 0 1 3.215-.953 39.253 39.253 0 0 1 9.252-1.229v3.325c-.413.003-.815.015-1.217.035h-.095a37.005 37.005 0 0 0-7.118 1.093 36.184 36.184 0 0 0-8.48 3.304V8.129a33.971 33.971 0 0 1 8.896-3.618 34.085 34.085 0 0 1 8.384-1.081h.489a33.55 33.55 0 0 1 1.688.081c1.409.099 2.807.322 4.178.666v3.272a25.84 25.84 0 0 0-4.048-.61l-.083-.007c-.282-.024-.564-.048-.828-.048zm5.759 3.345c.726.055 1.477.081 2.238.081a36.016 36.016 0 0 0 8.815-1.13 36.302 36.302 0 0 0 8.477-3.307v31.875a34.06 34.06 0 0 1-8.899 3.618 34.178 34.178 0 0 1-8.384 1.078 25.619 25.619 0 0 1-6.36-.75V9.511c.491.113.997.218 1.512.305.844.142 1.735.247 2.602.311zm16.222.247-1.156.389a51.443 51.443 0 0 1-3.215.962 39.129 39.129 0 0 1-9.607 1.232c-.754 0-1.448-.02-2.119-.064l-.922-.061v26.031l.792.07c.734.064 1.492.096 2.255.096a30.758 30.758 0 0 0 7.566-.979 31.752 31.752 0 0 0 5.912-2.124l.494-.238V10.375zM40.842 51.671a1.702 1.702 0 0 0-1.286-.521 1.913 1.913 0 0 0-.743.14 1.683 1.683 0 0 0-.951.962 1.875 1.875 0 0 0-.133.718v4.336c-.01.306.048.609.171.889.102.222.25.42.434.581.173.146.377.251.596.308.211.059.429.09.648.09.242.002.48-.049.7-.151a1.825 1.825 0 0 0 .957-.982 1.75 1.75 0 0 0 .139-.692v-.485h-1.133v.386c.003.132-.019.263-.066.386a.69.69 0 0 1-.165.244.693.693 0 0 1-.237.125.797.797 0 0 1-.237.041.57.57 0 0 1-.532-.232 1.024 1.024 0 0 1-.15-.581v-4.042a1.382 1.382 0 0 1 .139-.648.576.576 0 0 1 .555-.262.596.596 0 0 1 .506.244.921.921 0 0 1 .188.581v.375h1.122v-.442a2.045 2.045 0 0 0-.139-.758 1.789 1.789 0 0 0-.379-.61zM47.576 51.622a2.02 2.02 0 0 0-1.289-.477c-.231.001-.46.042-.677.122a1.787 1.787 0 0 0-1.038.962c-.114.265-.17.551-.165.84v4.159c-.008.293.048.583.165.852.103.224.253.422.44.581.173.161.377.285.598.366a1.948 1.948 0 0 0 1.966-.366c.181-.162.326-.36.428-.581.116-.268.173-.559.165-.852v-4.159a2.02 2.02 0 0 0-.165-.84 1.864 1.864 0 0 0-.428-.607zm-.529 5.606a.745.745 0 0 1-.226.602.829.829 0 0 1-1.066 0 .745.745 0 0 1-.226-.602v-4.159a.745.745 0 0 1 .226-.602.827.827 0 0 1 1.066 0 .745.745 0 0 1 .226.602v4.159zM56.42 59.085v-7.873h-1.09l-1.431 4.167h-.02l-1.443-4.167h-1.078v7.873h1.125v-4.789h.02l1.102 3.386h.561l1.11-3.386h.02v4.789h1.125zM62.809 51.764a1.564 1.564 0 0 0-.636-.43 2.48 2.48 0 0 0-.815-.122h-1.671v7.873h1.122V56.01h.578c.35.016.698-.058 1.012-.215.255-.142.468-.349.616-.602.13-.209.217-.443.257-.686.044-.296.064-.596.061-.895a4.481 4.481 0 0 0-.11-1.125 1.683 1.683 0 0 0-.413-.724zm-.578 2.401a.995.995 0 0 1-.104.41.633.633 0 0 1-.289.276 1.158 1.158 0 0 1-.529.099h-.512v-2.677h.578c.174-.009.348.025.506.099a.635.635 0 0 1 .263.291c.061.138.095.288.098.439v.523c0 .183.012.372 0 .541h-.012zM68.123 51.212h-.919l-1.735 7.873h1.122l.33-1.691h1.529l.33 1.691h1.122l-1.778-7.873zm-1.035 5.109.552-2.854h.02l.549 2.854h-1.122zM75.371 55.955h-.02l-1.694-4.743h-1.078v7.873h1.122v-4.734h.023l1.714 4.734h1.055v-7.873h-1.122v4.743zM82.226 51.212l-.902 3.13h-.023l-.902-3.13h-1.188l1.541 4.545v3.328h1.122v-3.328l1.541-4.545h-1.188zM37.714 61.308h.541v1.517h.367v-1.517h.538v-.311h-1.446v.311zM42.259 60.997l-.708 1.828h.39l.15-.416h.729l.156.416h.399l-.726-1.828h-.39zm-.058 1.104.249-.677.249.677h-.497zM46.752 62.151h.422v.235a.699.699 0 0 1-.434.154.468.468 0 0 1-.388-.175.763.763 0 0 1-.136-.477c0-.407.176-.61.526-.61a.388.388 0 0 1 .413.29l.361-.07c-.078-.358-.335-.538-.775-.538a.922.922 0 0 0-.639.235.881.881 0 0 0-.263.703.997.997 0 0 0 .234.686.892.892 0 0 0 .694.267c.286.008.564-.096.775-.291v-.721h-.792v.308zM51.34 60.997h-.37v1.828h1.281v-.311h-.911v-1.517zM55.22 60.997h-.37v1.828h.37v-1.828zM59.013 62.218l-.749-1.221h-.358v1.828h.344v-1.194l.734 1.194h.367v-1.828h-.338v1.221zM62.442 62.02h.911v-.311h-.911v-.401h.98v-.311h-1.35v1.828h1.388v-.311h-1.018v-.494zM70.757 61.718h-.72v-.721h-.367v1.828h.367v-.799h.72v.799h.367v-1.828h-.367v.721zM74.206 62.02h.914v-.311h-.914v-.401h.983v-.311h-1.35v1.828h1.385v-.311h-1.018v-.494zM78.884 62.02c.318-.049.48-.218.48-.509a.434.434 0 0 0-.179-.407 1.041 1.041 0 0 0-.535-.108h-.775v1.828h.367v-.764h.072a.482.482 0 0 1 .228.041.38.38 0 0 1 .13.134l.399.581h.439l-.223-.358a1.272 1.272 0 0 0-.405-.439zm-.37-.253h-.272v-.459h.289a.962.962 0 0 1 .373.044.24.24 0 0 1-.017.372 1.047 1.047 0 0 1-.373.044zM82.411 62.02h.911v-.311h-.911v-.401h.983v-.311h-1.353v1.828h1.388v-.311h-1.018v-.494z"/></symbol><symbol id="icon-company-logo-3" viewBox="0 0 119 64"><path d="M42.068 56.255a.141.141 0 0 1 .097.037l.252.237a2.069 2.069 0 0 1-.71.45 2.82 2.82 0 0 1-1.006.162 2.719 2.719 0 0 1-.946-.151 2.08 2.08 0 0 1-.713-.426 1.91 1.91 0 0 1-.461-.658 2.162 2.162 0 0 1-.161-.844 2.007 2.007 0 0 1 .173-.846c.11-.245.276-.468.489-.658.215-.186.473-.332.757-.429.311-.103.642-.154.975-.151.309-.006.617.04.905.138.25.093.479.221.678.38l-.211.253a.22.22 0 0 1-.054.046.146.146 0 0 1-.085.019.21.21 0 0 1-.092-.027l-.114-.067-.158-.086a1.93 1.93 0 0 0-.211-.084 2.173 2.173 0 0 0-.662-.094 2.088 2.088 0 0 0-.7.113c-.207.072-.394.18-.549.318a1.453 1.453 0 0 0-.356.507 1.668 1.668 0 0 0-.129.669c-.004.231.04.461.129.679a1.442 1.442 0 0 0 .874.817 1.9 1.9 0 0 0 .65.108c.129.002.258-.006.385-.022a1.534 1.534 0 0 0 .833-.348.2.2 0 0 1 .12-.043zM49.356 55.063c.004.286-.054.57-.17.838-.103.243-.265.465-.475.651s-.465.331-.746.427c-.618.201-1.3.201-1.918 0a2.2 2.2 0 0 1-.741-.429 1.924 1.924 0 0 1-.48-.658 2.155 2.155 0 0 1 0-1.679c.108-.245.27-.469.48-.66.211-.18.464-.32.741-.412a3.068 3.068 0 0 1 1.918 0c.28.097.534.243.745.429.208.187.37.408.476.65.117.27.175.556.17.844zm-.663 0a1.758 1.758 0 0 0-.12-.674 1.387 1.387 0 0 0-.871-.822 2.258 2.258 0 0 0-1.394 0c-.203.071-.385.18-.533.318-.154.145-.27.317-.341.504a1.941 1.941 0 0 0 0 1.348c.071.187.187.358.341.504.148.138.33.245.533.315.45.144.945.144 1.394 0 .203-.07.385-.178.533-.315.151-.147.266-.318.338-.504a1.74 1.74 0 0 0 .12-.674zM54.327 55.77l.066.151c.025-.054.047-.102.073-.151.024-.051.051-.1.082-.148l1.612-2.504c.032-.043.06-.07.092-.078a.453.453 0 0 1 .132-.014h.476v4.073h-.565V53.978a1.09 1.09 0 0 1 0-.14l-1.621 2.539c-.021.038-.053.07-.095.093s-.09.034-.139.034h-.091c-.049.001-.097-.011-.139-.034s-.074-.055-.095-.093l-1.669-2.555V57.09H51.9v-4.064h.476a.415.415 0 0 1 .132.014c.039.017.07.044.088.078l1.647 2.507c.032.046.06.095.082.145zM60.394 55.568v1.525h-.631v-4.067h1.407c.266-.004.53.026.785.089.204.05.394.136.555.253.14.11.248.247.315.399.075.166.111.343.107.52a1.131 1.131 0 0 1-.458.927 1.645 1.645 0 0 1-.558.27 2.694 2.694 0 0 1-.76.094l-.763-.011zm0-.437h.763c.166.002.331-.019.489-.062a1.08 1.08 0 0 0 .353-.175.775.775 0 0 0 .291-.612c.007-.113-.014-.226-.063-.331s-.124-.2-.221-.278a1.368 1.368 0 0 0-.849-.218h-.763v1.676zM68.874 57.099h-.499a.239.239 0 0 1-.139-.038.253.253 0 0 1-.082-.094l-.429-.984H65.57l-.445.984a.234.234 0 0 1-.221.132h-.499l1.893-4.073h.656l1.918 4.073zm-3.123-1.513h1.779l-.751-1.658a2.718 2.718 0 0 1-.142-.383l-.073.213a1.803 1.803 0 0 1-.069.172l-.745 1.655zM71.599 53.045c.038.018.07.043.095.073l2.76 3.07v-3.162h.565v4.073h-.315a.312.312 0 0 1-.129-.024.332.332 0 0 1-.101-.076l-2.757-3.067a1.09 1.09 0 0 1 0 .14v3.027h-.565v-4.073h.334a.314.314 0 0 1 .114.019zM79.669 55.479v1.617h-.631v-1.617l-1.745-2.453h.565a.235.235 0 0 1 .136.035.353.353 0 0 1 .085.092l1.092 1.582c.044.067.082.129.114.189s.057.116.079.173l.082-.175c.031-.064.067-.126.107-.186l1.076-1.593a.417.417 0 0 1 .082-.086.212.212 0 0 1 .136-.04h.571l-1.748 2.464zM54.015 46.191c.274.03.552.054.833.075 4.257-1.627 7.858-4.29 10.353-7.656s3.774-7.285 3.676-11.269l-4.691-4.008c.954 4.241.508 8.625-1.289 12.662s-4.872 7.567-8.882 10.195z"/><path d="m52.34 46.004.126.022c4.286-2.619 7.553-6.276 9.38-10.499s2.129-8.816.867-13.187l-6.682-5.709c2.703 4.692 3.79 9.944 3.137 15.144s-3.021 10.134-6.828 14.23zM75 32.048c-1.135 4.377-3.892 8.324-7.862 11.256a25.087 25.087 0 0 1-3.735 2.291c3.232-.812 6.203-2.247 8.684-4.194s4.404-4.356 5.623-7.04L75 32.048z"/><path d="m73.937 31.404-3.858-3.296c-.074 3.758-1.324 7.431-3.622 10.637s-5.558 5.827-9.442 7.592h.019c.866 0 1.73-.044 2.59-.132 3.63-1.266 6.837-3.28 9.334-5.862s4.208-5.653 4.978-8.938zM52.898 14.224l-4.603-3.938c-4.115 1.358-7.653 3.747-10.153 6.852s-3.844 6.783-3.857 10.552c.015 4.165 1.656 8.206 4.662 11.484s7.206 5.606 11.935 6.616c4.221-4.394 6.693-9.824 7.056-15.501s-1.403-11.304-5.04-16.065zM84.571 30.797c-.017-4.941-2.321-9.675-6.41-13.169s-9.631-5.463-15.414-5.477a24.91 24.91 0 0 0-7.814 1.242l28.181 24.078a16.09 16.09 0 0 0 1.457-6.674z"/></symbol><symbol id="icon-company-logo-4" viewBox="0 0 119 64"><path d="M27.518 24.592h-.003c-2.726 0-4.937 1.993-4.937 4.451v.003c0 2.458 2.21 4.451 4.937 4.451h.003c2.726 0 4.937-1.993 4.937-4.451v-.003c0-2.458-2.21-4.451-4.937-4.451zM63.956 23.169c-.008-3.414-1.515-6.687-4.193-9.101s-6.307-3.774-10.093-3.782c-3.788.006-7.419 1.366-10.098 3.78s-4.187 5.688-4.195 9.103v18.828s28.575-2.87 28.579-18.825v-.003zM12.571 48.176c.007 2.376 1.056 4.652 2.919 6.332s4.388 2.627 7.022 2.634c2.634-.007 5.159-.953 7.021-2.633s2.913-3.955 2.92-6.331V35.077S12.57 37.075 12.57 48.175zm9.942 2.348c-.515 0-1.018-.138-1.446-.396s-.762-.624-.959-1.053-.249-.901-.148-1.356c.1-.455.348-.873.712-1.202s.828-.552 1.333-.642c.505-.09 1.028-.044 1.504.134s.882.478 1.168.865c.286.386.439.84.439 1.304.001.309-.065.615-.195.901s-.322.546-.564.764c-.242.219-.529.393-.846.511s-.656.18-.998.18v-.009zM40.696 46.303v4.875h-1.004v-4.875h1.004zm1.942 2.083v.783h-2.216v-.783h2.216zm.234-2.083v.787h-2.451v-.787h2.451zm4.587 2.324v.231c0 .37-.05.703-.151.998s-.242.546-.425.753a1.846 1.846 0 0 1-.656.472 2.095 2.095 0 0 1-.84.164c-.306 0-.586-.055-.84-.164a1.882 1.882 0 0 1-.656-.472 2.225 2.225 0 0 1-.432-.753 3.095 3.095 0 0 1-.151-.998v-.231c0-.373.05-.705.151-.998.1-.295.242-.546.425-.753.185-.208.404-.366.656-.475.254-.109.535-.164.84-.164.308 0 .588.055.84.164.254.109.473.268.656.475.185.208.328.459.429.753.103.292.154.625.154.998zm-1.014.231v-.238c0-.259-.023-.487-.07-.683s-.116-.362-.208-.496-.203-.234-.335-.301a.96.96 0 0 0-.452-.104.894.894 0 0 0-.783.405c-.089.134-.157.299-.204.496s-.07.424-.07.683v.238c0 .257.023.484.07.683.047.196.116.363.208.499.092.134.203.236.335.305s.282.104.452.104c.17 0 .32-.035.452-.104s.242-.171.331-.305a1.57 1.57 0 0 0 .204-.499c.047-.199.07-.426.07-.683zm4.275 1.044a.638.638 0 0 0-.04-.234.443.443 0 0 0-.141-.194c-.069-.06-.166-.119-.291-.177s-.287-.118-.486-.181a6.15 6.15 0 0 1-.63-.241 2.601 2.601 0 0 1-.522-.311 1.397 1.397 0 0 1-.355-.419 1.15 1.15 0 0 1-.127-.552c0-.203.045-.387.134-.552.089-.167.214-.31.375-.429.161-.12.35-.213.569-.278.221-.065.463-.097.727-.097.359 0 .673.065.941.194s.476.307.623.532c.15.225.224.483.224.773h-.998a.754.754 0 0 0-.09-.375.614.614 0 0 0-.268-.258.949.949 0 0 0-.449-.094c-.174 0-.319.027-.435.08a.58.58 0 0 0-.261.211.519.519 0 0 0-.087.295c0 .083.02.157.06.224.042.067.105.129.188.187s.184.113.305.164c.121.051.26.102.419.151.266.08.499.171.7.271.203.1.373.213.509.338s.239.267.308.425c.069.158.104.338.104.539a1.177 1.177 0 0 1-.482.994c-.156.116-.343.204-.559.264s-.459.09-.727.09c-.241 0-.479-.031-.713-.094a2.192 2.192 0 0 1-.64-.291c-.19-.13-.342-.295-.455-.496s-.171-.439-.171-.713h1.008c0 .152.023.28.07.385s.113.19.198.255c.087.065.19.112.308.141.121.029.252.044.395.044.174 0 .317-.025.429-.074a.524.524 0 0 0 .335-.499zm3.868-3.599v4.875h-1.001v-4.875h1.001zm1.5 0v.787H52.11v-.787h3.978zm3.843 4.091v.783h-2.595v-.783h2.595zm-2.266-4.091v4.875h-1.004v-4.875h1.004zm1.928 1.985v.763h-2.257v-.763h2.257zm.335-1.985v.787h-2.592v-.787h2.592zm.589 0h1.818c.373 0 .693.056.961.167.27.112.478.277.623.496s.218.488.218.807c0 .261-.045.486-.134.673-.087.185-.211.34-.372.465a1.928 1.928 0 0 1-.559.295l-.318.167h-1.58l-.007-.783h1.175c.176 0 .322-.031.439-.094s.203-.15.261-.261a.808.808 0 0 0 .09-.388c0-.156-.029-.291-.087-.405s-.146-.201-.265-.261-.267-.09-.445-.09h-.814v4.088h-1.004v-4.875zm2.726 4.875-1.112-2.173 1.062-.007 1.125 2.133v.047h-1.075zm5.273-1.738h-1.242v-.783h1.242c.192 0 .348-.031.469-.094.121-.065.209-.154.265-.268s.084-.242.084-.385c0-.145-.028-.28-.084-.405s-.144-.225-.265-.301-.277-.114-.469-.114h-.894v4.088h-1.004v-4.875h1.898c.382 0 .709.069.981.208.275.136.484.325.629.566s.218.517.218.827c0 .315-.073.587-.218.817s-.355.407-.629.532c-.272.125-.599.187-.981.187zm5.793.954v.783h-2.595v-.783h2.595zm-2.267-4.091v4.875h-1.004v-4.875h1.004zm1.928 1.985v.763h-2.257v-.763h2.257zm.335-1.985v.787h-2.592v-.787h2.592zm2.836 0v4.875H76.14v-4.875h1.001zm1.5 0v.787h-3.978v-.787h3.978zm3.844 4.091v.783H79.89v-.783h2.595zm-2.267-4.091v4.875h-1.004v-4.875h1.004zm1.929 1.985v.763H79.89v-.763h2.257zm.335-1.985v.787H79.89v-.787h2.592zm.589 0h1.818c.373 0 .693.056.961.167.27.112.478.277.623.496s.218.488.218.807c0 .261-.045.486-.134.673-.087.185-.211.34-.372.465a1.941 1.941 0 0 1-.559.295l-.318.167h-1.58l-.007-.783h1.175c.176 0 .323-.031.439-.094s.203-.15.261-.261a.808.808 0 0 0 .09-.388c0-.156-.029-.291-.087-.405s-.146-.201-.264-.261a.98.98 0 0 0-.445-.09h-.814v4.088h-1.004v-4.875zm2.725 4.875-1.112-2.173 1.061-.007 1.125 2.133v.047h-1.075zm4.206-1.276a.638.638 0 0 0-.04-.234.443.443 0 0 0-.141-.194c-.069-.06-.166-.119-.291-.177s-.287-.118-.486-.181a6.044 6.044 0 0 1-.629-.241 2.574 2.574 0 0 1-.522-.311 1.397 1.397 0 0 1-.355-.419 1.15 1.15 0 0 1-.127-.552c0-.203.045-.387.134-.552.089-.167.214-.31.375-.429.161-.12.35-.213.569-.278.221-.065.463-.097.727-.097.359 0 .673.065.941.194s.475.307.623.532c.15.225.224.483.224.773h-.998a.754.754 0 0 0-.09-.375.614.614 0 0 0-.268-.258.949.949 0 0 0-.449-.094c-.174 0-.319.027-.435.08a.58.58 0 0 0-.261.211.519.519 0 0 0-.087.295c0 .083.02.157.06.224.042.067.105.129.188.187s.184.113.305.164c.121.051.26.102.418.151.266.08.499.171.7.271.203.1.373.213.509.338s.239.267.308.425c.069.158.104.338.104.539a1.177 1.177 0 0 1-.482.994c-.156.116-.343.204-.559.264s-.459.09-.727.09c-.241 0-.479-.031-.713-.094a2.192 2.192 0 0 1-.64-.291c-.19-.13-.341-.295-.455-.496s-.171-.439-.171-.713h1.008c0 .152.023.28.07.385s.113.19.198.255c.087.065.19.112.308.141.121.029.252.044.395.044.174 0 .317-.025.429-.074a.524.524 0 0 0 .335-.499z"/></symbol><symbol id="icon-company-logo-5" viewBox="0 0 119 64"><path d="M30.619 50.712c.28.313.43.704.422 1.106.014.262-.037.524-.15.766s-.285.458-.504.631c-.545.37-1.22.552-1.902.51h-3.343v-7.008h3.274a3.02 3.02 0 0 1 1.814.466c.212.159.379.361.489.588s.16.475.146.723c.019.387-.116.767-.38 1.072a1.812 1.812 0 0 1-.996.548c.444.073.844.285 1.13.599zm-3.921-1.058h1.4c.318.021.634-.062.89-.233.105-.086.187-.192.239-.311s.073-.247.061-.374c.01-.127-.012-.254-.063-.372s-.131-.225-.234-.312a1.465 1.465 0 0 0-.917-.236h-1.377v1.839zm2.427 2.688c.112-.088.201-.198.258-.321s.082-.257.073-.391c.009-.135-.017-.27-.076-.395s-.148-.236-.262-.324a1.561 1.561 0 0 0-.951-.253h-1.468v1.928h1.487c.335.017.666-.068.939-.243zM37.313 53.725l-1.822-2.739h-.685v2.739h-1.567v-7.008h2.966a3.14 3.14 0 0 1 2.065.596c.415.38.665.882.705 1.413s-.131 1.059-.485 1.487a2.49 2.49 0 0 1-1.415.712l1.94 2.801h-1.704zm-2.507-3.694h1.282c.89 0 1.335-.354 1.335-1.061.009-.145-.015-.289-.072-.425s-.143-.259-.255-.363a1.488 1.488 0 0 0-1.008-.284h-1.297l.015 2.133zM45.877 52.315h-3.122l-.551 1.41h-1.643l2.867-6.93h1.776l2.856 6.93h-1.643l-.54-1.41zm-.418-1.062-1.141-2.958-1.141 2.958h2.282zM56.598 53.725h-1.555l-3.487-4.766v4.766h-1.552v-7.008h1.552l3.487 4.793v-4.793h1.555v7.008zM65.475 52.047c-.322.529-.812.96-1.407 1.236a5.005 5.005 0 0 1-2.187.442h-2.769v-7.008h2.769a5.113 5.113 0 0 1 2.187.431c.595.27 1.086.696 1.407 1.222.32.57.487 1.2.487 1.839s-.167 1.269-.487 1.839zm-1.78-.167c.444-.466.688-1.059.688-1.673s-.244-1.207-.688-1.672a2.897 2.897 0 0 0-1.947-.596h-1.08v4.536h1.08a2.895 2.895 0 0 0 1.947-.596zM46.851 7.733s20.076 6.824 19.65 16.698v16.701S46.44 34.305 46.858 24.431L46.85 7.733zM84.387 37.222c3.792-2.349 8.177-3.804 12.756-4.232v-5.228c-5.275 1.83-9.75 5.149-12.756 9.46z"/><path d="M82.109 38.797c3.103-5.626 8.483-9.967 15.034-12.13V11.602s-28.592 9.72-27.987 23.782v23.778s1.274-.435 3.278-1.25c0-.76 0-1.527.091-2.297.592-6.528 4.039-12.577 9.584-16.818z"/><path d="M79.39 47.631c.15-1.649.485-3.28 1-4.869-3.453 3.662-5.543 8.206-5.978 12.993-.042.452-.065.904-.076 1.37a86.398 86.398 0 0 0 5.499-2.609 22.206 22.206 0 0 1-.445-6.885zM80.527 47.716c-.19 2.083-.071 4.18.354 6.235 7.812-4.208 16.589-10.71 16.251-18.567v-.685c-5.581.562-10.803 2.759-14.862 6.252a21.487 21.487 0 0 0-1.742 6.766z"/></symbol><symbol id="icon-company-logo-6" viewBox="0 0 119 64"><path d="M61.176 31.364a3.374 3.374 0 0 1-.693-2.277v-3.301c0-1.012.23-1.781.689-2.307s1.248-.788 2.366-.786c1.051 0 1.796.224 2.237.672.481.571.715 1.27.662 1.974v.776h-1.879v-.786a3.97 3.97 0 0 0-.055-.769.75.75 0 0 0-.268-.457 1.085 1.085 0 0 0-.681-.178 1.147 1.147 0 0 0-.716.188.875.875 0 0 0-.311.504 3.796 3.796 0 0 0-.074.816v4.006c-.03.386.053.773.241 1.125.093.119.223.213.375.273s.32.081.485.063c.241.017.48-.048.665-.181a.803.803 0 0 0 .28-.487c.044-.266.063-.534.058-.802v-.813h1.879v.742a3.021 3.021 0 0 1-.65 2.075c-.432.49-1.167.735-2.249.735s-1.899-.262-2.362-.806zM69.002 31.397c-.475-.514-.712-1.262-.712-2.253v-3.472c0-.98.237-1.723.712-2.226s1.268-.754 2.381-.752c1.105 0 1.895.251 2.37.752.475.504.716 1.246.716 2.226v3.472c0 .98-.241 1.733-.724 2.25s-1.268.776-2.362.776-1.903-.262-2.381-.772zm3.256-.832c.17-.322.247-.674.226-1.027v-4.251a1.88 1.88 0 0 0-.222-1.007c-.095-.122-.228-.218-.384-.277s-.327-.08-.496-.059c-.169-.02-.341 0-.497.06s-.29.155-.386.276a1.845 1.845 0 0 0-.226 1.007v4.271c-.024.353.054.706.226 1.028.109.108.245.195.396.255s.316.09.483.09.331-.031.483-.09c.152-.06.287-.146.396-.255v-.02zM76.729 22.795h2.023l1.521 6.406 1.556-6.406h1.969l.198 9.246h-1.455l-.156-6.426-1.502 6.426h-1.167l-1.556-6.45-.144 6.45h-1.471l.183-9.246zM86.266 22.795h3.152c1.816 0 2.724.875 2.724 2.625 0 1.676-.956 2.514-2.868 2.511H88.2v4.109h-1.945l.012-9.246zm2.693 3.952c.192.021.387.006.572-.045s.355-.135.498-.248c.223-.312.322-.679.28-1.044a2.902 2.902 0 0 0-.093-.839c-.028-.092-.076-.178-.143-.254s-.15-.139-.246-.186a2.011 2.011 0 0 0-.868-.148h-.755v2.763h.755zM94.947 22.795h2.09l2.144 9.246h-1.813l-.424-2.132H95.08l-.436 2.132h-1.84l2.144-9.246zm1.786 6.044-.728-3.881-.728 3.881h1.455zM100.912 22.795h1.362l2.607 5.274v-5.274h1.615v9.246H105.2l-2.623-5.506v5.506h-1.669l.004-9.246zM110.278 28.516l-2.167-5.708h1.825l1.323 3.666 1.241-3.666h1.786l-2.14 5.708v3.525h-1.868v-3.525zM64.18 36.084v.484h-1.588v3.757h-.665v-3.757h-1.595v-.484h3.848zM69.157 40.325h-.514a.231.231 0 0 1-.144-.04.222.222 0 0 1-.086-.097l-.459-1.007h-2.202l-.459 1.007a.278.278 0 0 1-.07.114.24.24 0 0 1-.144.04h-.514l1.945-4.24h.677l1.969 4.224zm-3.222-1.575h1.837l-.778-1.726a3.03 3.03 0 0 1-.144-.4c-.027.081-.05.158-.074.225l-.07.178-.77 1.722zM72.511 39.909c.122.005.244.005.366 0 .105-.009.209-.026.311-.05.095-.02.189-.046.28-.077.086-.03.171-.067.261-.104v-.954h-.778c-.019.001-.038-.002-.057-.007s-.034-.015-.048-.026c-.013-.01-.023-.021-.03-.035s-.01-.028-.009-.042v-.326h1.51v1.625a2.88 2.88 0 0 1-.821.346c-.159.04-.322.07-.486.087a5.982 5.982 0 0 1-.568.027 2.979 2.979 0 0 1-.981-.158 2.399 2.399 0 0 1-.778-.443 2.046 2.046 0 0 1-.502-.672 2.12 2.12 0 0 1-.179-.88 2.196 2.196 0 0 1 .175-.886 1.96 1.96 0 0 1 .502-.672c.222-.191.487-.34.778-.44a3.27 3.27 0 0 1 1.043-.158c.181 0 .362.012.541.037.158.022.313.058.463.107.136.044.266.1.389.168.119.066.232.14.338.222l-.187.262c-.015.024-.036.044-.063.058s-.057.022-.089.022a.253.253 0 0 1-.121-.034 2.293 2.293 0 0 1-.191-.101 1.69 1.69 0 0 0-.261-.114 2.415 2.415 0 0 0-.358-.094 3.018 3.018 0 0 0-.494-.037 2.341 2.341 0 0 0-.751.117c-.217.075-.412.19-.572.336a1.486 1.486 0 0 0-.362.527 1.98 1.98 0 0 0 0 1.414c.085.199.218.381.389.534.16.145.353.26.568.336.247.073.51.102.77.084zM78.714 39.841h2.125v.484h-2.774v-4.241h.665l-.016 3.757zM83.048 40.325h-.665v-4.241h.665v4.241zM85.523 36.104a.323.323 0 0 1 .101.077l2.844 3.197a.952.952 0 0 1 0-.151V36.067h.58v4.258h-.335a.32.32 0 0 1-.144-.024.364.364 0 0 1-.105-.081l-2.84-3.193V40.324h-.556v-4.241h.346c.038 0 .075.007.109.02zM93.947 36.084v.467h-2.358v1.4h1.91v.45h-1.91v1.447h2.358v.467h-3.043v-4.231h3.043zM24.223 9.896l29.545 7.239v25.366l-29.545-7.236V9.895zm-1.895-2.163v28.764l33.331 8.169V15.905L22.328 7.733z"/><path d="M40.192 58.019 6.857 49.843V21.082l33.335 8.172v28.765z"/><path d="m22.881 9.57 29.16 7.148L39.64 27.422 10.476 20.27l12.405-10.7zm-.553-1.837L6.857 21.082l33.335 8.172 15.467-13.349-33.331-8.172zM42.068 56.401 55.659 44.67l-13.591-3.334v15.065z"/></symbol><symbol id="icon-close-cross" viewBox="0 0 64 64"><path d="M64 6.446 57.554 0 32 25.554 6.446 0 0 6.446 25.554 32 0 57.554 6.446 64 32 38.446 57.554 64 64 57.554 38.446 32 64 6.446z"/></symbol><symbol id="icon-person" viewBox="0 0 24 32"><path d="M12 16c2.21 0 4-1.79 4-4s-1.79-4-4-4-4 1.79-4 4 1.79 4 4 4zm0 2c-2.67 0-8 1.34-8 4v1c0 .55.45 1 1 1h14c.55 0 1-.45 1-1v-1c0-2.66-5.33-4-8-4z"/></symbol><symbol id="icon-phone" viewBox="0 0 24 32"><path d="m19.635 18.487-2.451-.28a1.92 1.92 0 0 0-1.582.55l-1.775 1.775a14.514 14.514 0 0 1-6.359-6.359l1.785-1.785c.415-.415.618-.994.55-1.582l-.28-2.432a1.931 1.931 0 0 0-1.92-1.708H5.934c-1.09 0-1.997.907-1.93 1.997.511 8.24 7.102 14.821 15.332 15.332 1.09.068 1.997-.839 1.997-1.93v-1.669a1.913 1.913 0 0 0-1.698-1.911z"/></symbol><symbol id="icon-email" viewBox="0 0 24 32"><path d="M20 8H4c-1.1 0-1.99.9-1.99 2L2 22c0 1.1.9 2 2 2h16c1.1 0 2-.9 2-2V10c0-1.1-.9-2-2-2zm-.4 4.25-7.07 4.42c-.32.2-.74.2-1.06 0L4.4 12.25a.85.85 0 1 1 .9-1.44L12 15l6.7-4.19a.85.85 0 1 1 .9 1.44z"/></symbol><symbol id="icon-checkmark" viewBox="0 0 20 16"><path d="M16.891.51a1.834 1.834 0 0 1 2.558.02 1.855 1.855 0 0 1 .068 2.571L9.728 15.41a1.83 1.83 0 0 1-2.037.457 1.834 1.834 0 0 1-.613-.408L.586 8.932a1.863 1.863 0 0 1-.451-2.046 1.85 1.85 0 0 1 1.017-1.022 1.823 1.823 0 0 1 1.438.026c.225.101.429.247.597.429l5.137 5.163L16.845.567a.628.628 0 0 1 .049-.054h-.002z"/></symbol><symbol id="icon-hamburger" viewBox="0 0 47 32"><path stroke-linecap="round" stroke-linejoin="round" stroke-width="4.364" d="M1.96 29.154h42.965M1.96 15.615h42.965M1.96 2.077h42.965"/></symbol><symbol id="icon-subscribe" viewBox="0 0 32 32"><path d="m32 2.667-32 15 10.227 3.156L26 8.5 14.002 21.988l.01.003-.012-.003v7.345l5.735-5.576L27 25.999l5-23.333z"/></symbol></defs></svg>